<mxfile host="app.diagrams.net" modified="2023-09-01T20:35:06.393Z" agent="Mozilla/5.0 (Macintosh; Intel Mac OS X 10_15_7) AppleWebKit/537.36 (KHTML, like Gecko) Chrome/116.0.0.0 Safari/537.36" etag="8UxtPdGSD1l7CgnvTPif" version="21.7.1" type="device">
  <diagram name="Page-1" id="hoM-w71oJTG3iJfQ7vMw">
    <mxGraphModel dx="1213" dy="626" grid="1" gridSize="10" guides="1" tooltips="1" connect="1" arrows="1" fold="1" page="1" pageScale="1" pageWidth="850" pageHeight="1100" math="0" shadow="0">
      <root>
        <mxCell id="0" />
        <mxCell id="1" parent="0" />
        <mxCell id="UtItsaFiXnrbXdJHDG-v-4" style="edgeStyle=orthogonalEdgeStyle;rounded=0;orthogonalLoop=1;jettySize=auto;html=1;" parent="1" source="UtItsaFiXnrbXdJHDG-v-1" target="UtItsaFiXnrbXdJHDG-v-3" edge="1">
          <mxGeometry relative="1" as="geometry" />
        </mxCell>
        <mxCell id="UtItsaFiXnrbXdJHDG-v-1" value="" style="ellipse;fillColor=strokeColor;html=1;" parent="1" vertex="1">
          <mxGeometry x="500" y="190" width="30" height="30" as="geometry" />
        </mxCell>
        <mxCell id="UtItsaFiXnrbXdJHDG-v-6" style="edgeStyle=orthogonalEdgeStyle;rounded=0;orthogonalLoop=1;jettySize=auto;html=1;" parent="1" source="UtItsaFiXnrbXdJHDG-v-3" target="UtItsaFiXnrbXdJHDG-v-5" edge="1">
          <mxGeometry relative="1" as="geometry" />
        </mxCell>
        <mxCell id="UtItsaFiXnrbXdJHDG-v-3" value="Community member opens app" style="rounded=0;whiteSpace=wrap;html=1;" parent="1" vertex="1">
          <mxGeometry x="455" y="240" width="120" height="60" as="geometry" />
        </mxCell>
        <mxCell id="UtItsaFiXnrbXdJHDG-v-8" value="Yes" style="edgeStyle=orthogonalEdgeStyle;rounded=0;orthogonalLoop=1;jettySize=auto;html=1;" parent="1" source="UtItsaFiXnrbXdJHDG-v-5" target="UtItsaFiXnrbXdJHDG-v-7" edge="1">
          <mxGeometry relative="1" as="geometry" />
        </mxCell>
        <mxCell id="UtItsaFiXnrbXdJHDG-v-12" value="No" style="edgeStyle=orthogonalEdgeStyle;rounded=0;orthogonalLoop=1;jettySize=auto;html=1;" parent="1" source="UtItsaFiXnrbXdJHDG-v-5" target="UtItsaFiXnrbXdJHDG-v-11" edge="1">
          <mxGeometry relative="1" as="geometry" />
        </mxCell>
        <mxCell id="UtItsaFiXnrbXdJHDG-v-5" value="Has account?" style="rhombus;whiteSpace=wrap;html=1;" parent="1" vertex="1">
          <mxGeometry x="457.5" y="320" width="115" height="80" as="geometry" />
        </mxCell>
        <mxCell id="UtItsaFiXnrbXdJHDG-v-19" style="edgeStyle=orthogonalEdgeStyle;rounded=0;orthogonalLoop=1;jettySize=auto;html=1;" parent="1" source="UtItsaFiXnrbXdJHDG-v-7" target="UtItsaFiXnrbXdJHDG-v-18" edge="1">
          <mxGeometry relative="1" as="geometry">
            <mxPoint x="580" y="700" as="targetPoint" />
          </mxGeometry>
        </mxCell>
        <mxCell id="UtItsaFiXnrbXdJHDG-v-7" value="Login" style="rounded=0;whiteSpace=wrap;html=1;" parent="1" vertex="1">
          <mxGeometry x="455" y="460" width="120" height="60" as="geometry" />
        </mxCell>
        <mxCell id="UtItsaFiXnrbXdJHDG-v-14" value="Yes" style="edgeStyle=orthogonalEdgeStyle;rounded=0;orthogonalLoop=1;jettySize=auto;html=1;" parent="1" source="UtItsaFiXnrbXdJHDG-v-11" target="UtItsaFiXnrbXdJHDG-v-13" edge="1">
          <mxGeometry relative="1" as="geometry" />
        </mxCell>
        <mxCell id="UtItsaFiXnrbXdJHDG-v-16" value="No" style="edgeStyle=orthogonalEdgeStyle;rounded=0;orthogonalLoop=1;jettySize=auto;html=1;" parent="1" source="UtItsaFiXnrbXdJHDG-v-11" target="UtItsaFiXnrbXdJHDG-v-15" edge="1">
          <mxGeometry relative="1" as="geometry" />
        </mxCell>
        <mxCell id="UtItsaFiXnrbXdJHDG-v-11" value="Does community member want to create account?" style="rhombus;whiteSpace=wrap;html=1;" parent="1" vertex="1">
          <mxGeometry x="269.38" y="300" width="137.5" height="120" as="geometry" />
        </mxCell>
        <mxCell id="UtItsaFiXnrbXdJHDG-v-13" value="Signup" style="whiteSpace=wrap;html=1;" parent="1" vertex="1">
          <mxGeometry x="100" y="330" width="120" height="60" as="geometry" />
        </mxCell>
        <mxCell id="UtItsaFiXnrbXdJHDG-v-20" style="edgeStyle=orthogonalEdgeStyle;rounded=0;orthogonalLoop=1;jettySize=auto;html=1;" parent="1" source="UtItsaFiXnrbXdJHDG-v-15" target="UtItsaFiXnrbXdJHDG-v-18" edge="1">
          <mxGeometry relative="1" as="geometry" />
        </mxCell>
        <mxCell id="UtItsaFiXnrbXdJHDG-v-15" value="Continue as guest" style="whiteSpace=wrap;html=1;" parent="1" vertex="1">
          <mxGeometry x="278.13" y="460" width="120" height="60" as="geometry" />
        </mxCell>
        <mxCell id="UtItsaFiXnrbXdJHDG-v-22" style="edgeStyle=orthogonalEdgeStyle;rounded=0;orthogonalLoop=1;jettySize=auto;html=1;" parent="1" source="UtItsaFiXnrbXdJHDG-v-18" target="UtItsaFiXnrbXdJHDG-v-21" edge="1">
          <mxGeometry relative="1" as="geometry" />
        </mxCell>
        <mxCell id="UtItsaFiXnrbXdJHDG-v-18" value="" style="html=1;points=[];perimeter=orthogonalPerimeter;fillColor=strokeColor;rotation=90;" parent="1" vertex="1">
          <mxGeometry x="425" y="480" width="8.75" height="190" as="geometry" />
        </mxCell>
        <mxCell id="UtItsaFiXnrbXdJHDG-v-24" style="edgeStyle=orthogonalEdgeStyle;rounded=0;orthogonalLoop=1;jettySize=auto;html=1;" parent="1" source="UtItsaFiXnrbXdJHDG-v-21" target="UtItsaFiXnrbXdJHDG-v-23" edge="1">
          <mxGeometry relative="1" as="geometry" />
        </mxCell>
        <mxCell id="UtItsaFiXnrbXdJHDG-v-21" value="Community member goes through menu" style="rounded=0;whiteSpace=wrap;html=1;" parent="1" vertex="1">
          <mxGeometry x="369.37" y="600" width="120" height="60" as="geometry" />
        </mxCell>
        <mxCell id="UtItsaFiXnrbXdJHDG-v-27" value="" style="edgeStyle=orthogonalEdgeStyle;rounded=0;orthogonalLoop=1;jettySize=auto;html=1;" parent="1" source="UtItsaFiXnrbXdJHDG-v-23" target="UtItsaFiXnrbXdJHDG-v-26" edge="1">
          <mxGeometry relative="1" as="geometry" />
        </mxCell>
        <mxCell id="UtItsaFiXnrbXdJHDG-v-23" value="Select food to order" style="rounded=0;whiteSpace=wrap;html=1;" parent="1" vertex="1">
          <mxGeometry x="369.38" y="690" width="120" height="60" as="geometry" />
        </mxCell>
        <mxCell id="UtItsaFiXnrbXdJHDG-v-29" value="" style="edgeStyle=orthogonalEdgeStyle;rounded=0;orthogonalLoop=1;jettySize=auto;html=1;" parent="1" source="UtItsaFiXnrbXdJHDG-v-26" target="UtItsaFiXnrbXdJHDG-v-28" edge="1">
          <mxGeometry relative="1" as="geometry" />
        </mxCell>
        <mxCell id="UtItsaFiXnrbXdJHDG-v-38" value="" style="edgeStyle=orthogonalEdgeStyle;rounded=0;orthogonalLoop=1;jettySize=auto;html=1;" parent="1" source="UtItsaFiXnrbXdJHDG-v-26" target="UtItsaFiXnrbXdJHDG-v-37" edge="1">
          <mxGeometry relative="1" as="geometry" />
        </mxCell>
        <mxCell id="UtItsaFiXnrbXdJHDG-v-26" value="Go to checkout" style="whiteSpace=wrap;html=1;rounded=0;" parent="1" vertex="1">
          <mxGeometry x="369.38" y="780" width="120" height="60" as="geometry" />
        </mxCell>
        <mxCell id="UtItsaFiXnrbXdJHDG-v-31" value="" style="edgeStyle=orthogonalEdgeStyle;rounded=0;orthogonalLoop=1;jettySize=auto;html=1;" parent="1" source="UtItsaFiXnrbXdJHDG-v-28" target="UtItsaFiXnrbXdJHDG-v-30" edge="1">
          <mxGeometry relative="1" as="geometry" />
        </mxCell>
        <mxCell id="UtItsaFiXnrbXdJHDG-v-28" value="Select payment option" style="whiteSpace=wrap;html=1;rounded=0;" parent="1" vertex="1">
          <mxGeometry x="369.37" y="870" width="120" height="60" as="geometry" />
        </mxCell>
        <mxCell id="UtItsaFiXnrbXdJHDG-v-33" value="yes" style="edgeStyle=orthogonalEdgeStyle;rounded=0;orthogonalLoop=1;jettySize=auto;html=1;" parent="1" source="UtItsaFiXnrbXdJHDG-v-30" target="UtItsaFiXnrbXdJHDG-v-32" edge="1">
          <mxGeometry relative="1" as="geometry" />
        </mxCell>
        <mxCell id="UtItsaFiXnrbXdJHDG-v-36" value="no" style="edgeStyle=orthogonalEdgeStyle;rounded=0;orthogonalLoop=1;jettySize=auto;html=1;exitX=0;exitY=0.5;exitDx=0;exitDy=0;" parent="1" source="UtItsaFiXnrbXdJHDG-v-30" target="UtItsaFiXnrbXdJHDG-v-26" edge="1">
          <mxGeometry relative="1" as="geometry">
            <mxPoint x="220" y="1380" as="targetPoint" />
            <Array as="points">
              <mxPoint x="340" y="995" />
              <mxPoint x="340" y="810" />
            </Array>
          </mxGeometry>
        </mxCell>
        <mxCell id="UtItsaFiXnrbXdJHDG-v-30" value="Payment success?" style="rhombus;whiteSpace=wrap;html=1;rounded=0;" parent="1" vertex="1">
          <mxGeometry x="390" y="955" width="80" height="80" as="geometry" />
        </mxCell>
        <mxCell id="UtItsaFiXnrbXdJHDG-v-35" value="" style="edgeStyle=orthogonalEdgeStyle;rounded=0;orthogonalLoop=1;jettySize=auto;html=1;" parent="1" source="UtItsaFiXnrbXdJHDG-v-32" target="UtItsaFiXnrbXdJHDG-v-34" edge="1">
          <mxGeometry relative="1" as="geometry" />
        </mxCell>
        <mxCell id="UtItsaFiXnrbXdJHDG-v-32" value="Order goes through" style="whiteSpace=wrap;html=1;rounded=0;" parent="1" vertex="1">
          <mxGeometry x="530" y="965" width="120" height="60" as="geometry" />
        </mxCell>
        <mxCell id="UtItsaFiXnrbXdJHDG-v-48" value="" style="edgeStyle=orthogonalEdgeStyle;rounded=0;orthogonalLoop=1;jettySize=auto;html=1;" parent="1" source="UtItsaFiXnrbXdJHDG-v-34" target="UtItsaFiXnrbXdJHDG-v-47" edge="1">
          <mxGeometry relative="1" as="geometry" />
        </mxCell>
        <mxCell id="UtItsaFiXnrbXdJHDG-v-34" value="Email receipt received" style="whiteSpace=wrap;html=1;rounded=0;" parent="1" vertex="1">
          <mxGeometry x="750" y="965" width="120" height="60" as="geometry" />
        </mxCell>
        <mxCell id="UtItsaFiXnrbXdJHDG-v-39" value="yes" style="edgeStyle=orthogonalEdgeStyle;rounded=0;orthogonalLoop=1;jettySize=auto;html=1;entryX=0.75;entryY=0;entryDx=0;entryDy=0;" parent="1" source="UtItsaFiXnrbXdJHDG-v-37" target="UtItsaFiXnrbXdJHDG-v-26" edge="1">
          <mxGeometry relative="1" as="geometry">
            <Array as="points">
              <mxPoint x="459" y="760" />
            </Array>
          </mxGeometry>
        </mxCell>
        <mxCell id="UtItsaFiXnrbXdJHDG-v-45" value="no" style="edgeStyle=orthogonalEdgeStyle;rounded=0;orthogonalLoop=1;jettySize=auto;html=1;" parent="1" source="UtItsaFiXnrbXdJHDG-v-37" target="UtItsaFiXnrbXdJHDG-v-47" edge="1">
          <mxGeometry relative="1" as="geometry">
            <mxPoint x="904.3699999999999" y="1100" as="targetPoint" />
          </mxGeometry>
        </mxCell>
        <mxCell id="UtItsaFiXnrbXdJHDG-v-37" value="&lt;br&gt;Does Community member still want to pay?" style="rhombus;whiteSpace=wrap;html=1;rounded=0;" parent="1" vertex="1">
          <mxGeometry x="550" y="745" width="160" height="130" as="geometry" />
        </mxCell>
        <mxCell id="UtItsaFiXnrbXdJHDG-v-42" value="" style="ellipse;html=1;shape=endState;fillColor=strokeColor;" parent="1" vertex="1">
          <mxGeometry x="795" y="690" width="30" height="30" as="geometry" />
        </mxCell>
        <mxCell id="UtItsaFiXnrbXdJHDG-v-49" style="edgeStyle=orthogonalEdgeStyle;rounded=0;orthogonalLoop=1;jettySize=auto;html=1;" parent="1" source="UtItsaFiXnrbXdJHDG-v-47" target="UtItsaFiXnrbXdJHDG-v-42" edge="1">
          <mxGeometry relative="1" as="geometry" />
        </mxCell>
        <mxCell id="UtItsaFiXnrbXdJHDG-v-47" value="Exit app" style="whiteSpace=wrap;html=1;rounded=0;" parent="1" vertex="1">
          <mxGeometry x="750" y="780" width="120" height="60" as="geometry" />
        </mxCell>
      </root>
    </mxGraphModel>
  </diagram>
</mxfile>
